<svg xmlns="http://www.w3.org/2000/svg" viewBox="0 0 400 300" role="img" aria-label="Drainage Cover Mould">
  <defs>
    <linearGradient id="bg5" x1="0" x2="0" y1="0" y2="1"><stop offset="0" stop-color="#0f2742"/><stop offset="1" stop-color="#0a1a2e"/></linearGradient>
    <pattern id="grid5" width="20" height="20" patternUnits="userSpaceOnUse"><path d="M20 0H0V20" fill="none" stroke="#1d3557" stroke-width="0.5"/></pattern>
  </defs>
  <rect width="400" height="300" fill="url(#bg5)"/>
  <rect width="400" height="300" fill="url(#grid5)"/>
  <g transform="translate(200 155)" fill="none" stroke="#f59e0b" stroke-width="1.5">
    <rect x="-110" y="-50" width="220" height="100" rx="4"/>
    <rect x="-100" y="-40" width="200" height="80" rx="2" stroke="#3b82f6"/>
    <g stroke="#f59e0b" stroke-width="1">
      <line x1="-85" y1="-40" x2="-85" y2="40"/>
      <line x1="-65" y1="-40" x2="-65" y2="40"/>
      <line x1="-45" y1="-40" x2="-45" y2="40"/>
      <line x1="-25" y1="-40" x2="-25" y2="40"/>
      <line x1="-5" y1="-40" x2="-5" y2="40"/>
      <line x1="15" y1="-40" x2="15" y2="40"/>
      <line x1="35" y1="-40" x2="35" y2="40"/>
      <line x1="55" y1="-40" x2="55" y2="40"/>
      <line x1="75" y1="-40" x2="75" y2="40"/>
      <line x1="95" y1="-40" x2="95" y2="40"/>
    </g>
  </g>
  <text x="20" y="30" fill="#e2e8f0" font-family="Inter,Arial" font-size="14" font-weight="700">Drainage / Trench Cover Mould</text>
  <text x="20" y="48" fill="#64748b" font-family="Inter,Arial" font-size="11">Slotted · Roadside Drainage</text>
</svg>
