<svg xmlns="http://www.w3.org/2000/svg" viewBox="0 0 400 300" role="img" aria-label="Tree Grate Mould">
  <defs>
    <linearGradient id="bg2" x1="0" x2="0" y1="0" y2="1"><stop offset="0" stop-color="#0f2742"/><stop offset="1" stop-color="#0a1a2e"/></linearGradient>
    <pattern id="grid2" width="20" height="20" patternUnits="userSpaceOnUse"><path d="M20 0H0V20" fill="none" stroke="#1d3557" stroke-width="0.5"/></pattern>
  </defs>
  <rect width="400" height="300" fill="url(#bg2)"/>
  <rect width="400" height="300" fill="url(#grid2)"/>
  <g transform="translate(200 155)" fill="none" stroke="#3b82f6" stroke-width="1.5">
    <rect x="-90" y="-90" width="180" height="180" rx="6"/>
    <rect x="-78" y="-78" width="156" height="156" rx="4" stroke="#f59e0b"/>
    <circle r="22" stroke="#f59e0b"/>
    <g stroke="#3b82f6">
      <line x1="-78" y1="-50" x2="78" y2="-50"/>
      <line x1="-78" y1="-20" x2="78" y2="-20"/>
      <line x1="-78" y1="20" x2="78" y2="20"/>
      <line x1="-78" y1="50" x2="78" y2="50"/>
      <line x1="-50" y1="-78" x2="-50" y2="78"/>
      <line x1="-20" y1="-78" x2="-20" y2="78"/>
      <line x1="20" y1="-78" x2="20" y2="78"/>
      <line x1="50" y1="-78" x2="50" y2="78"/>
    </g>
  </g>
  <text x="20" y="30" fill="#e2e8f0" font-family="Inter,Arial" font-size="14" font-weight="700">Tree Grate Mould</text>
  <text x="20" y="48" fill="#64748b" font-family="Inter,Arial" font-size="11">Square 1200 · Streetscape</text>
</svg>
